<svg width="22" height="22" viewBox="0 0 22 22" fill="none" xmlns="http://www.w3.org/2000/svg">
<g clip-path="url(#clip0)">
<path fill-rule="evenodd" clip-rule="evenodd" d="M1 1H39.0004V2.53848H1V1ZM1 4.07695H39.0004V5.61543H1V4.07695ZM1 7.15391H39.0004V8.69238H1V7.15391ZM1 10.2309H39.0004V11.7693H1V10.2309ZM1 13.3078H39.0004V14.8463H1V13.3078ZM1 16.3848H39.0004V17.9232H1V16.3848ZM1 19.4617H39.0004V21.0002H1V19.4617Z" fill="#BD3D44"/>
<path fill-rule="evenodd" clip-rule="evenodd" d="M1 2.53857H39.0004V4.07705H1V2.53857ZM1 5.61553H39.0004V7.154H1V5.61553ZM1 8.69248H39.0004V10.231H1V8.69248ZM1 11.7694H39.0004V13.3079H1V11.7694ZM1 14.8464H39.0004V16.3849H1V14.8464ZM1 17.9233H39.0004V19.4618H1V17.9233Z" fill="white"/>
<path fill-rule="evenodd" clip-rule="evenodd" d="M1 1H16.2001V11.7693H1V1Z" fill="#192F5D"/>
<path fill-rule="evenodd" clip-rule="evenodd" d="M2.26156 1.46167L2.41541 1.89244H2.84618L2.49233 2.15398L2.63079 2.56937L2.26156 2.30783L1.92309 2.56937L2.06156 2.15398L1.69232 1.89244H2.15386L2.26156 1.46167ZM4.80005 1.46167L4.93851 1.89244H5.38467L5.01543 2.15398L5.16928 2.56937L4.80005 2.30783L4.43081 2.56937L4.58466 2.15398L4.21542 1.89244H4.66158L4.80005 1.46167ZM7.33853 1.46167L7.477 1.89244H7.92315L7.55392 2.15398L7.70777 2.56937L7.33853 2.30783L6.9693 2.56937L7.12315 2.15398L6.75391 1.89244H7.20007L7.33853 1.46167ZM9.86164 1.46167L10.0155 1.89244H10.4463L10.0924 2.15398L10.2309 2.56937L9.86164 2.30783L9.50779 2.56937L9.64625 2.15398L9.27701 1.89244H9.73856L9.86164 1.46167ZM12.4001 1.46167L12.5386 1.89244H12.9847L12.6155 2.15398L12.7694 2.56937L12.3847 2.30783L12.0309 2.56937L12.1694 2.15398L11.8001 1.89244H12.2463L12.4001 1.46167ZM14.9386 1.46167L15.0771 1.89244H15.5232L15.154 2.15398L15.3078 2.56937L14.9386 2.30783L14.5694 2.56937L14.7232 2.15398L14.354 1.89244H14.8001L14.9386 1.46167ZM3.53849 2.5386L3.67696 2.96938H4.12312L3.75388 3.23092L3.90773 3.64631L3.53849 3.38476L3.16926 3.64631L3.32311 3.23092L2.95387 2.96938H3.40003L3.53849 2.5386ZM6.0616 2.5386L6.21544 2.96938H6.64622L6.29237 3.23092L6.43083 3.64631L6.0616 3.38476L5.70775 3.64631L5.84621 3.23092L5.47698 2.96938H5.93852L6.0616 2.5386ZM8.60008 2.5386L8.73855 2.96938H9.18471L8.81547 3.23092L8.96932 3.64631L8.60008 3.38476L8.23085 3.64631L8.3847 3.23092L8.01546 2.96938H8.46162L8.60008 2.5386ZM11.1386 2.5386L11.277 2.96938H11.7232L11.354 3.23092L11.5078 3.64631L11.1386 3.38476L10.7693 3.64631L10.9232 3.23092L10.5539 2.96938H11.0001L11.1386 2.5386ZM13.6617 2.5386L13.8155 2.96938H14.2309L13.8771 3.23092L14.0155 3.64631L13.6463 3.38476L13.2924 3.64631L13.4309 3.23092L13.0617 2.96938H13.5232L13.6617 2.5386ZM2.27694 3.61554L2.40002 4.04631H2.86156L2.49233 4.30785L2.63079 4.72324L2.26156 4.4617L1.92309 4.72324L2.06156 4.30785L1.69232 4.04631H2.15386L2.27694 3.61554ZM4.80005 3.61554L4.93851 4.04631H5.38467L5.03082 4.30785L5.16928 4.72324L4.80005 4.4617L4.4462 4.72324L4.58466 4.30785L4.21542 4.04631H4.66158L4.80005 3.61554ZM7.33853 3.61554L7.477 4.04631H7.92315L7.55392 4.30785L7.70777 4.72324L7.33853 4.4617L6.9693 4.72324L7.12315 4.30785L6.75391 4.04631H7.20007L7.33853 3.61554ZM9.86164 3.61554L10.0155 4.04631H10.4463L10.0924 4.30785L10.2309 4.72324L9.86164 4.4617L9.50779 4.72324L9.64625 4.30785L9.27701 4.04631H9.73856L9.86164 3.61554ZM12.4001 3.61554L12.5386 4.04631H12.9847L12.6309 4.30785L12.7694 4.72324L12.4001 4.4617L12.0463 4.72324L12.1847 4.30785L11.8155 4.04631H12.2617L12.4001 3.61554ZM14.9386 3.61554L15.0771 4.04631H15.5232L15.154 4.30785L15.3078 4.72324L14.9386 4.4617L14.5694 4.72324L14.7232 4.30785L14.354 4.04631H14.8001L14.9386 3.61554ZM3.53849 4.69247L3.67696 5.12324H4.12312L3.75388 5.38478L3.90773 5.80017L3.53849 5.53863L3.16926 5.80017L3.32311 5.38478L2.95387 5.12324H3.40003L3.53849 4.69247ZM6.0616 4.69247L6.21544 5.12324H6.64622L6.29237 5.38478L6.43083 5.80017L6.0616 5.53863L5.70775 5.80017L5.84621 5.38478L5.47698 5.12324H5.93852L6.0616 4.69247ZM8.60008 4.69247L8.73855 5.12324H9.18471L8.83086 5.38478L8.96932 5.80017L8.60008 5.53863L8.24623 5.80017L8.3847 5.38478L8.01546 5.12324H8.46162L8.60008 4.69247ZM11.1386 4.69247L11.277 5.12324H11.7232L11.354 5.38478L11.5078 5.80017L11.1386 5.53863L10.7693 5.80017L10.9232 5.38478L10.5539 5.12324H11.0001L11.1386 4.69247ZM13.6617 4.69247L13.8155 5.12324H14.2309L13.8771 5.38478L14.0155 5.80017L13.6463 5.53863L13.2924 5.80017L13.4309 5.38478L13.0617 5.12324H13.5232L13.6617 4.69247ZM2.27694 5.7694L2.40002 6.20018H2.86156L2.49233 6.46172L2.63079 6.87711L2.26156 6.61556L1.92309 6.87711L2.06156 6.46172L1.69232 6.20018H2.15386L2.27694 5.7694ZM4.80005 5.7694L4.93851 6.20018H5.38467L5.03082 6.46172L5.16928 6.87711L4.80005 6.61556L4.4462 6.87711L4.58466 6.46172L4.21542 6.20018H4.66158L4.80005 5.7694ZM7.33853 5.7694L7.477 6.20018H7.92315L7.55392 6.46172L7.70777 6.87711L7.33853 6.61556L6.9693 6.87711L7.12315 6.46172L6.75391 6.20018H7.20007L7.33853 5.7694ZM9.86164 5.7694L10.0155 6.20018H10.4463L10.0924 6.46172L10.2309 6.87711L9.86164 6.61556L9.50779 6.87711L9.64625 6.46172L9.27701 6.20018H9.73856L9.86164 5.7694ZM12.4001 5.7694L12.5386 6.20018H12.9847L12.6309 6.46172L12.7694 6.87711L12.4001 6.61556L12.0463 6.87711L12.1847 6.46172L11.8155 6.20018H12.2617L12.4001 5.7694ZM14.9386 5.7694L15.0771 6.20018H15.5232L15.154 6.46172L15.3078 6.87711L14.9386 6.61556L14.5694 6.87711L14.7232 6.46172L14.354 6.20018H14.8001L14.9386 5.7694ZM3.53849 6.84634L3.67696 7.27711H4.12312L3.75388 7.53865L3.90773 7.95404L3.53849 7.6925L3.16926 7.95404L3.32311 7.53865L2.95387 7.27711H3.40003L3.53849 6.84634ZM6.0616 6.84634L6.21544 7.27711H6.64622L6.29237 7.53865L6.43083 7.95404L6.0616 7.6925L5.70775 7.95404L5.84621 7.53865L5.47698 7.27711H5.93852L6.0616 6.84634ZM8.60008 6.84634L8.73855 7.27711H9.18471L8.83086 7.53865L8.96932 7.95404L8.60008 7.6925L8.24623 7.95404L8.3847 7.53865L8.01546 7.27711H8.46162L8.60008 6.84634ZM11.1386 6.84634L11.277 7.27711H11.7232L11.354 7.53865L11.5078 7.95404L11.1386 7.6925L10.7693 7.95404L10.9232 7.53865L10.5539 7.27711H11.0001L11.1386 6.84634ZM13.6617 6.84634L13.8155 7.27711H14.2309L13.8771 7.53865L14.0155 7.95404L13.6463 7.6925L13.2924 7.95404L13.4309 7.53865L13.0617 7.27711H13.5232L13.6617 6.84634ZM2.27694 7.92327L2.40002 8.35404H2.86156L2.49233 8.61558L2.63079 9.03097L2.26156 8.76943L1.92309 9.03097L2.06156 8.61558L1.69232 8.35404H2.15386L2.27694 7.92327ZM4.80005 7.92327L4.93851 8.35404H5.38467L5.03082 8.61558L5.16928 9.03097L4.80005 8.76943L4.4462 9.03097L4.58466 8.61558L4.21542 8.35404H4.66158L4.80005 7.92327ZM7.33853 7.92327L7.477 8.35404H7.92315L7.55392 8.61558L7.70777 9.03097L7.33853 8.76943L6.9693 9.03097L7.12315 8.61558L6.75391 8.35404H7.20007L7.33853 7.92327ZM9.86164 7.92327L10.0155 8.35404H10.4463L10.0924 8.61558L10.2309 9.03097L9.86164 8.76943L9.50779 9.03097L9.64625 8.61558L9.27701 8.35404H9.73856L9.86164 7.92327ZM12.4001 7.92327L12.5386 8.35404H12.9847L12.6309 8.61558L12.7694 9.03097L12.4001 8.76943L12.0463 9.03097L12.1847 8.61558L11.8155 8.35404H12.2617L12.4001 7.92327ZM14.9386 7.92327L15.0771 8.35404H15.5232L15.154 8.61558L15.3078 9.03097L14.9386 8.76943L14.5694 9.03097L14.7232 8.61558L14.354 8.35404H14.8001L14.9386 7.92327ZM3.53849 9.0002L3.67696 9.43097H4.12312L3.75388 9.69252L3.90773 10.1079L3.53849 9.84636L3.16926 10.1079L3.32311 9.69252L2.95387 9.43097H3.40003L3.53849 9.0002ZM6.0616 9.0002L6.21544 9.43097H6.64622L6.29237 9.69252L6.43083 10.1079L6.0616 9.84636L5.70775 10.1079L5.84621 9.69252L5.47698 9.43097H5.93852L6.0616 9.0002ZM8.60008 9.0002L8.73855 9.43097H9.18471L8.83086 9.69252L8.96932 10.1079L8.60008 9.84636L8.24623 10.1079L8.3847 9.69252L8.01546 9.43097H8.46162L8.60008 9.0002ZM11.1386 9.0002L11.277 9.43097H11.7232L11.354 9.69252L11.5078 10.1079L11.1386 9.84636L10.7693 10.1079L10.9232 9.69252L10.5539 9.43097H11.0001L11.1386 9.0002ZM13.6617 9.0002L13.8155 9.43097H14.2309L13.8771 9.69252L14.0155 10.1079L13.6463 9.84636L13.2924 10.1079L13.4309 9.69252L13.0617 9.43097H13.5232L13.6617 9.0002ZM2.27694 10.0771L2.40002 10.5079H2.86156L2.49233 10.7694L2.63079 11.1848L2.26156 10.9233L1.92309 11.1848L2.06156 10.7694L1.69232 10.5079H2.15386L2.27694 10.0771ZM4.80005 10.0771L4.93851 10.5079H5.38467L5.03082 10.7694L5.16928 11.1848L4.80005 10.9233L4.4462 11.1848L4.58466 10.7694L4.21542 10.5079H4.66158L4.80005 10.0771ZM7.33853 10.0771L7.477 10.5079H7.92315L7.55392 10.7694L7.70777 11.1848L7.33853 10.9233L6.9693 11.1848L7.12315 10.7694L6.75391 10.5079H7.20007L7.33853 10.0771ZM9.86164 10.0771L10.0155 10.5079H10.4463L10.0924 10.7694L10.2309 11.1848L9.86164 10.9233L9.50779 11.1848L9.64625 10.7694L9.27701 10.5079H9.73856L9.86164 10.0771ZM12.4001 10.0771L12.5386 10.5079H12.9847L12.6309 10.7694L12.7694 11.1848L12.4001 10.9233L12.0463 11.1848L12.1847 10.7694L11.8155 10.5079H12.2617L12.4001 10.0771ZM14.9386 10.0771L15.0771 10.5079H15.5232L15.154 10.7694L15.3078 11.1848L14.9386 10.9233L14.5694 11.1848L14.7232 10.7694L14.354 10.5079H14.8001L14.9386 10.0771Z" fill="white"/>
</g>
<rect x="1" y="1" width="20" height="20" rx="3" stroke="white"/>
<defs>
<clipPath id="clip0">
<rect x="1" y="1" width="20" height="20" rx="3" fill="white"/>
</clipPath>
</defs>
</svg>
