<svg width="370" height="180" viewBox="0 0 370 180" fill="none" xmlns="http://www.w3.org/2000/svg">
<circle cx="1.8" cy="1.8" r="1.8" fill="#E4E4E4" fill-opacity="0.6"/>
<circle cx="14.4" cy="1.8" r="1.8" fill="#E4E4E4" fill-opacity="0.6"/>
<circle cx="27" cy="1.8" r="1.8" fill="#E4E4E4" fill-opacity="0.6"/>
<circle cx="39.6" cy="1.8" r="1.8" fill="#E4E4E4" fill-opacity="0.6"/>
<circle cx="52.2" cy="1.8" r="1.8" fill="#E4E4E4" fill-opacity="0.6"/>
<circle cx="64.8" cy="1.8" r="1.8" fill="#E4E4E4" fill-opacity="0.6"/>
<circle cx="77.4" cy="1.8" r="1.8" fill="#E4E4E4" fill-opacity="0.6"/>
<circle cx="90" cy="1.8" r="1.8" fill="#E4E4E4" fill-opacity="0.6"/>
<circle cx="102.6" cy="1.8" r="1.8" fill="#E4E4E4" fill-opacity="0.6"/>
<circle cx="115.2" cy="1.8" r="1.8" fill="#E4E4E4" fill-opacity="0.6"/>
<circle cx="127.8" cy="1.8" r="1.8" fill="#E4E4E4" fill-opacity="0.6"/>
<circle cx="140.4" cy="1.8" r="1.8" fill="#E4E4E4" fill-opacity="0.6"/>
<circle cx="153" cy="1.8" r="1.8" fill="#E4E4E4" fill-opacity="0.6"/>
<circle cx="165.6" cy="1.8" r="1.8" fill="#E4E4E4" fill-opacity="0.6"/>
<circle cx="178.2" cy="1.8" r="1.8" fill="#E4E4E4" fill-opacity="0.6"/>
<circle cx="1.8" cy="14.4001" r="1.8" fill="#E4E4E4" fill-opacity="0.6"/>
<circle cx="14.4" cy="14.4001" r="1.8" fill="#E4E4E4" fill-opacity="0.6"/>
<circle cx="27" cy="14.4001" r="1.8" fill="#E4E4E4" fill-opacity="0.6"/>
<circle cx="39.6" cy="14.4001" r="1.8" fill="#E4E4E4" fill-opacity="0.6"/>
<circle cx="52.2" cy="14.4001" r="1.8" fill="#E4E4E4" fill-opacity="0.6"/>
<circle cx="64.8" cy="14.4001" r="1.8" fill="#E4E4E4" fill-opacity="0.6"/>
<circle cx="77.4" cy="14.4001" r="1.8" fill="#E4E4E4" fill-opacity="0.6"/>
<circle cx="90" cy="14.4001" r="1.8" fill="#E4E4E4" fill-opacity="0.6"/>
<circle cx="102.6" cy="14.4001" r="1.8" fill="#E4E4E4" fill-opacity="0.6"/>
<circle cx="115.2" cy="14.4001" r="1.8" fill="#E4E4E4" fill-opacity="0.6"/>
<circle cx="127.8" cy="14.4001" r="1.8" fill="#E4E4E4" fill-opacity="0.6"/>
<circle cx="140.4" cy="14.4001" r="1.8" fill="#E4E4E4" fill-opacity="0.6"/>
<circle cx="153" cy="14.4001" r="1.8" fill="#E4E4E4" fill-opacity="0.6"/>
<circle cx="165.6" cy="14.4001" r="1.8" fill="#E4E4E4" fill-opacity="0.6"/>
<circle cx="178.2" cy="14.4001" r="1.8" fill="#E4E4E4" fill-opacity="0.6"/>
<circle cx="1.8" cy="27" r="1.8" fill="#E4E4E4" fill-opacity="0.6"/>
<circle cx="14.4" cy="27" r="1.8" fill="#E4E4E4" fill-opacity="0.6"/>
<circle cx="27" cy="27" r="1.8" fill="#E4E4E4" fill-opacity="0.6"/>
<circle cx="39.6" cy="27" r="1.8" fill="#E4E4E4" fill-opacity="0.6"/>
<circle cx="52.2" cy="27" r="1.8" fill="#E4E4E4" fill-opacity="0.6"/>
<circle cx="64.8" cy="27" r="1.8" fill="#E4E4E4" fill-opacity="0.6"/>
<circle cx="77.4" cy="27" r="1.8" fill="#E4E4E4" fill-opacity="0.6"/>
<circle cx="90" cy="27" r="1.8" fill="#E4E4E4" fill-opacity="0.6"/>
<circle cx="102.6" cy="27" r="1.8" fill="#E4E4E4" fill-opacity="0.6"/>
<circle cx="115.2" cy="27" r="1.8" fill="#E4E4E4" fill-opacity="0.6"/>
<circle cx="127.8" cy="27" r="1.8" fill="#E4E4E4" fill-opacity="0.6"/>
<circle cx="140.4" cy="27" r="1.8" fill="#E4E4E4" fill-opacity="0.6"/>
<circle cx="153" cy="27" r="1.8" fill="#E4E4E4" fill-opacity="0.6"/>
<circle cx="165.6" cy="27" r="1.8" fill="#E4E4E4" fill-opacity="0.6"/>
<circle cx="178.2" cy="27" r="1.8" fill="#E4E4E4" fill-opacity="0.6"/>
<circle cx="1.8" cy="39.6" r="1.8" fill="#E4E4E4" fill-opacity="0.6"/>
<circle cx="14.4" cy="39.6" r="1.8" fill="#E4E4E4" fill-opacity="0.6"/>
<circle cx="27" cy="39.6" r="1.8" fill="#E4E4E4" fill-opacity="0.6"/>
<circle cx="39.6" cy="39.6" r="1.8" fill="#E4E4E4" fill-opacity="0.6"/>
<circle cx="52.2" cy="39.6" r="1.8" fill="#E4E4E4" fill-opacity="0.6"/>
<circle cx="64.8" cy="39.6" r="1.8" fill="#E4E4E4" fill-opacity="0.6"/>
<circle cx="77.4" cy="39.6" r="1.8" fill="#E4E4E4" fill-opacity="0.6"/>
<circle cx="90" cy="39.6" r="1.8" fill="#E4E4E4" fill-opacity="0.6"/>
<circle cx="102.6" cy="39.6" r="1.8" fill="#E4E4E4" fill-opacity="0.6"/>
<circle cx="115.2" cy="39.6" r="1.8" fill="#E4E4E4" fill-opacity="0.6"/>
<circle cx="127.8" cy="39.6" r="1.8" fill="#E4E4E4" fill-opacity="0.6"/>
<circle cx="140.4" cy="39.6" r="1.8" fill="#E4E4E4" fill-opacity="0.6"/>
<circle cx="153" cy="39.6" r="1.8" fill="#E4E4E4" fill-opacity="0.6"/>
<circle cx="165.6" cy="39.6" r="1.8" fill="#E4E4E4" fill-opacity="0.6"/>
<circle cx="178.2" cy="39.6" r="1.8" fill="#E4E4E4" fill-opacity="0.6"/>
<circle cx="1.8" cy="52.1999" r="1.8" fill="#E4E4E4" fill-opacity="0.6"/>
<circle cx="14.4" cy="52.1999" r="1.8" fill="#E4E4E4" fill-opacity="0.6"/>
<circle cx="27" cy="52.1999" r="1.8" fill="#E4E4E4" fill-opacity="0.6"/>
<circle cx="39.6" cy="52.1999" r="1.8" fill="#E4E4E4" fill-opacity="0.6"/>
<circle cx="52.2" cy="52.1999" r="1.8" fill="#E4E4E4" fill-opacity="0.6"/>
<circle cx="64.8" cy="52.1999" r="1.8" fill="#E4E4E4" fill-opacity="0.6"/>
<circle cx="77.4" cy="52.1999" r="1.8" fill="#E4E4E4" fill-opacity="0.6"/>
<circle cx="90" cy="52.1999" r="1.8" fill="#E4E4E4" fill-opacity="0.6"/>
<circle cx="102.6" cy="52.1999" r="1.8" fill="#E4E4E4" fill-opacity="0.6"/>
<circle cx="115.2" cy="52.1999" r="1.8" fill="#E4E4E4" fill-opacity="0.6"/>
<circle cx="127.8" cy="52.1999" r="1.8" fill="#E4E4E4" fill-opacity="0.6"/>
<circle cx="140.4" cy="52.1999" r="1.8" fill="#E4E4E4" fill-opacity="0.6"/>
<circle cx="153" cy="52.1999" r="1.8" fill="#E4E4E4" fill-opacity="0.6"/>
<circle cx="165.6" cy="52.1999" r="1.8" fill="#E4E4E4" fill-opacity="0.6"/>
<circle cx="178.2" cy="52.1999" r="1.8" fill="#E4E4E4" fill-opacity="0.6"/>
<circle cx="1.8" cy="64.8" r="1.8" fill="#E4E4E4" fill-opacity="0.6"/>
<circle cx="14.4" cy="64.8" r="1.8" fill="#E4E4E4" fill-opacity="0.6"/>
<circle cx="27" cy="64.8" r="1.8" fill="#E4E4E4" fill-opacity="0.6"/>
<circle cx="39.6" cy="64.8" r="1.8" fill="#E4E4E4" fill-opacity="0.6"/>
<circle cx="52.2" cy="64.8" r="1.8" fill="#E4E4E4" fill-opacity="0.6"/>
<circle cx="64.8" cy="64.8" r="1.8" fill="#E4E4E4" fill-opacity="0.6"/>
<circle cx="77.4" cy="64.8" r="1.8" fill="#E4E4E4" fill-opacity="0.6"/>
<circle cx="90" cy="64.8" r="1.8" fill="#E4E4E4" fill-opacity="0.6"/>
<circle cx="102.6" cy="64.8" r="1.8" fill="#E4E4E4" fill-opacity="0.6"/>
<circle cx="115.2" cy="64.8" r="1.8" fill="#E4E4E4" fill-opacity="0.6"/>
<circle cx="127.8" cy="64.8" r="1.8" fill="#E4E4E4" fill-opacity="0.6"/>
<circle cx="140.4" cy="64.8" r="1.8" fill="#E4E4E4" fill-opacity="0.6"/>
<circle cx="153" cy="64.8" r="1.8" fill="#E4E4E4" fill-opacity="0.6"/>
<circle cx="165.6" cy="64.8" r="1.8" fill="#E4E4E4" fill-opacity="0.6"/>
<circle cx="178.2" cy="64.8" r="1.8" fill="#E4E4E4" fill-opacity="0.6"/>
<circle cx="1.8" cy="77.4001" r="1.8" fill="#E4E4E4" fill-opacity="0.6"/>
<circle cx="14.4" cy="77.4001" r="1.8" fill="#E4E4E4" fill-opacity="0.6"/>
<circle cx="27" cy="77.4001" r="1.8" fill="#E4E4E4" fill-opacity="0.6"/>
<circle cx="39.6" cy="77.4001" r="1.8" fill="#E4E4E4" fill-opacity="0.6"/>
<circle cx="52.2" cy="77.4001" r="1.8" fill="#E4E4E4" fill-opacity="0.6"/>
<circle cx="64.8" cy="77.4001" r="1.8" fill="#E4E4E4" fill-opacity="0.6"/>
<circle cx="77.4" cy="77.4001" r="1.8" fill="#E4E4E4" fill-opacity="0.6"/>
<circle cx="90" cy="77.4001" r="1.8" fill="#E4E4E4" fill-opacity="0.6"/>
<circle cx="102.6" cy="77.4001" r="1.8" fill="#E4E4E4" fill-opacity="0.6"/>
<circle cx="115.2" cy="77.4001" r="1.8" fill="#E4E4E4" fill-opacity="0.6"/>
<circle cx="127.8" cy="77.4001" r="1.8" fill="#E4E4E4" fill-opacity="0.6"/>
<circle cx="140.4" cy="77.4001" r="1.8" fill="#E4E4E4" fill-opacity="0.6"/>
<circle cx="153" cy="77.4001" r="1.8" fill="#E4E4E4" fill-opacity="0.6"/>
<circle cx="165.6" cy="77.4001" r="1.8" fill="#E4E4E4" fill-opacity="0.6"/>
<circle cx="178.2" cy="77.4001" r="1.8" fill="#E4E4E4" fill-opacity="0.6"/>
<circle cx="1.8" cy="90" r="1.8" fill="#E4E4E4" fill-opacity="0.6"/>
<circle cx="14.4" cy="90" r="1.8" fill="#E4E4E4" fill-opacity="0.6"/>
<circle cx="27" cy="90" r="1.8" fill="#E4E4E4" fill-opacity="0.6"/>
<circle cx="39.6" cy="90" r="1.8" fill="#E4E4E4" fill-opacity="0.6"/>
<circle cx="52.2" cy="90" r="1.8" fill="#E4E4E4" fill-opacity="0.6"/>
<circle cx="64.8" cy="90" r="1.8" fill="#E4E4E4" fill-opacity="0.6"/>
<circle cx="77.4" cy="90" r="1.8" fill="#E4E4E4" fill-opacity="0.6"/>
<circle cx="90" cy="90" r="1.8" fill="#E4E4E4" fill-opacity="0.6"/>
<circle cx="102.6" cy="90" r="1.8" fill="#E4E4E4" fill-opacity="0.6"/>
<circle cx="115.2" cy="90" r="1.8" fill="#E4E4E4" fill-opacity="0.6"/>
<circle cx="127.8" cy="90" r="1.8" fill="#E4E4E4" fill-opacity="0.6"/>
<circle cx="140.4" cy="90" r="1.8" fill="#E4E4E4" fill-opacity="0.6"/>
<circle cx="153" cy="90" r="1.8" fill="#E4E4E4" fill-opacity="0.6"/>
<circle cx="165.6" cy="90" r="1.8" fill="#E4E4E4" fill-opacity="0.6"/>
<circle cx="178.2" cy="90" r="1.8" fill="#E4E4E4" fill-opacity="0.6"/>
<circle cx="1.8" cy="102.6" r="1.8" fill="#E4E4E4" fill-opacity="0.6"/>
<circle cx="14.4" cy="102.6" r="1.8" fill="#E4E4E4" fill-opacity="0.6"/>
<circle cx="27" cy="102.6" r="1.8" fill="#E4E4E4" fill-opacity="0.6"/>
<circle cx="39.6" cy="102.6" r="1.8" fill="#E4E4E4" fill-opacity="0.6"/>
<circle cx="52.2" cy="102.6" r="1.8" fill="#E4E4E4" fill-opacity="0.6"/>
<circle cx="64.8" cy="102.6" r="1.8" fill="#E4E4E4" fill-opacity="0.6"/>
<circle cx="77.4" cy="102.6" r="1.8" fill="#E4E4E4" fill-opacity="0.6"/>
<circle cx="90" cy="102.6" r="1.8" fill="#E4E4E4" fill-opacity="0.6"/>
<circle cx="102.6" cy="102.6" r="1.8" fill="#E4E4E4" fill-opacity="0.6"/>
<circle cx="115.2" cy="102.6" r="1.8" fill="#E4E4E4" fill-opacity="0.6"/>
<circle cx="127.8" cy="102.6" r="1.8" fill="#E4E4E4" fill-opacity="0.6"/>
<circle cx="140.4" cy="102.6" r="1.8" fill="#E4E4E4" fill-opacity="0.6"/>
<circle cx="153" cy="102.6" r="1.8" fill="#E4E4E4" fill-opacity="0.6"/>
<circle cx="165.6" cy="102.6" r="1.8" fill="#E4E4E4" fill-opacity="0.6"/>
<circle cx="178.2" cy="102.6" r="1.8" fill="#E4E4E4" fill-opacity="0.6"/>
<circle cx="1.8" cy="115.2" r="1.8" fill="#E4E4E4" fill-opacity="0.6"/>
<circle cx="14.4" cy="115.2" r="1.8" fill="#E4E4E4" fill-opacity="0.6"/>
<circle cx="27" cy="115.2" r="1.8" fill="#E4E4E4" fill-opacity="0.6"/>
<circle cx="39.6" cy="115.2" r="1.8" fill="#E4E4E4" fill-opacity="0.6"/>
<circle cx="52.2" cy="115.2" r="1.8" fill="#E4E4E4" fill-opacity="0.6"/>
<circle cx="64.8" cy="115.2" r="1.8" fill="#E4E4E4" fill-opacity="0.6"/>
<circle cx="77.4" cy="115.2" r="1.8" fill="#E4E4E4" fill-opacity="0.6"/>
<circle cx="90" cy="115.2" r="1.8" fill="#E4E4E4" fill-opacity="0.6"/>
<circle cx="102.6" cy="115.2" r="1.8" fill="#E4E4E4" fill-opacity="0.6"/>
<circle cx="115.2" cy="115.2" r="1.8" fill="#E4E4E4" fill-opacity="0.6"/>
<circle cx="127.8" cy="115.2" r="1.8" fill="#E4E4E4" fill-opacity="0.6"/>
<circle cx="140.4" cy="115.2" r="1.8" fill="#E4E4E4" fill-opacity="0.6"/>
<circle cx="153" cy="115.2" r="1.8" fill="#E4E4E4" fill-opacity="0.6"/>
<circle cx="165.6" cy="115.2" r="1.8" fill="#E4E4E4" fill-opacity="0.6"/>
<circle cx="178.2" cy="115.2" r="1.8" fill="#E4E4E4" fill-opacity="0.6"/>
<circle cx="1.8" cy="127.8" r="1.8" fill="#E4E4E4" fill-opacity="0.6"/>
<circle cx="14.4" cy="127.8" r="1.8" fill="#E4E4E4" fill-opacity="0.6"/>
<circle cx="27" cy="127.8" r="1.8" fill="#E4E4E4" fill-opacity="0.6"/>
<circle cx="39.6" cy="127.8" r="1.8" fill="#E4E4E4" fill-opacity="0.6"/>
<circle cx="52.2" cy="127.8" r="1.8" fill="#E4E4E4" fill-opacity="0.6"/>
<circle cx="64.8" cy="127.8" r="1.8" fill="#E4E4E4" fill-opacity="0.6"/>
<circle cx="77.4" cy="127.8" r="1.8" fill="#E4E4E4" fill-opacity="0.6"/>
<circle cx="90" cy="127.8" r="1.8" fill="#E4E4E4" fill-opacity="0.6"/>
<circle cx="102.6" cy="127.8" r="1.8" fill="#E4E4E4" fill-opacity="0.6"/>
<circle cx="115.2" cy="127.8" r="1.8" fill="#E4E4E4" fill-opacity="0.6"/>
<circle cx="127.8" cy="127.8" r="1.8" fill="#E4E4E4" fill-opacity="0.6"/>
<circle cx="140.4" cy="127.8" r="1.8" fill="#E4E4E4" fill-opacity="0.6"/>
<circle cx="153" cy="127.8" r="1.8" fill="#E4E4E4" fill-opacity="0.6"/>
<circle cx="165.6" cy="127.8" r="1.8" fill="#E4E4E4" fill-opacity="0.6"/>
<circle cx="178.2" cy="127.8" r="1.8" fill="#E4E4E4" fill-opacity="0.6"/>
<circle cx="1.8" cy="140.4" r="1.8" fill="#E4E4E4" fill-opacity="0.6"/>
<circle cx="14.4" cy="140.4" r="1.8" fill="#E4E4E4" fill-opacity="0.6"/>
<circle cx="27" cy="140.4" r="1.8" fill="#E4E4E4" fill-opacity="0.6"/>
<circle cx="39.6" cy="140.4" r="1.8" fill="#E4E4E4" fill-opacity="0.6"/>
<circle cx="52.2" cy="140.4" r="1.8" fill="#E4E4E4" fill-opacity="0.6"/>
<circle cx="64.8" cy="140.4" r="1.8" fill="#E4E4E4" fill-opacity="0.6"/>
<circle cx="77.4" cy="140.4" r="1.8" fill="#E4E4E4" fill-opacity="0.6"/>
<circle cx="90" cy="140.4" r="1.8" fill="#E4E4E4" fill-opacity="0.6"/>
<circle cx="102.6" cy="140.4" r="1.8" fill="#E4E4E4" fill-opacity="0.6"/>
<circle cx="115.2" cy="140.4" r="1.8" fill="#E4E4E4" fill-opacity="0.6"/>
<circle cx="127.8" cy="140.4" r="1.8" fill="#E4E4E4" fill-opacity="0.6"/>
<circle cx="140.4" cy="140.4" r="1.8" fill="#E4E4E4" fill-opacity="0.6"/>
<circle cx="153" cy="140.4" r="1.8" fill="#E4E4E4" fill-opacity="0.6"/>
<circle cx="165.6" cy="140.4" r="1.8" fill="#E4E4E4" fill-opacity="0.6"/>
<circle cx="178.2" cy="140.4" r="1.8" fill="#E4E4E4" fill-opacity="0.6"/>
<circle cx="1.8" cy="153" r="1.8" fill="#E4E4E4" fill-opacity="0.6"/>
<circle cx="14.4" cy="153" r="1.8" fill="#E4E4E4" fill-opacity="0.6"/>
<circle cx="27" cy="153" r="1.8" fill="#E4E4E4" fill-opacity="0.6"/>
<circle cx="39.6" cy="153" r="1.8" fill="#E4E4E4" fill-opacity="0.6"/>
<circle cx="52.2" cy="153" r="1.8" fill="#E4E4E4" fill-opacity="0.6"/>
<circle cx="64.8" cy="153" r="1.8" fill="#E4E4E4" fill-opacity="0.6"/>
<circle cx="77.4" cy="153" r="1.8" fill="#E4E4E4" fill-opacity="0.6"/>
<circle cx="90" cy="153" r="1.8" fill="#E4E4E4" fill-opacity="0.6"/>
<circle cx="102.6" cy="153" r="1.8" fill="#E4E4E4" fill-opacity="0.6"/>
<circle cx="115.2" cy="153" r="1.8" fill="#E4E4E4" fill-opacity="0.6"/>
<circle cx="127.8" cy="153" r="1.8" fill="#E4E4E4" fill-opacity="0.6"/>
<circle cx="140.4" cy="153" r="1.8" fill="#E4E4E4" fill-opacity="0.6"/>
<circle cx="153" cy="153" r="1.8" fill="#E4E4E4" fill-opacity="0.6"/>
<circle cx="165.6" cy="153" r="1.8" fill="#E4E4E4" fill-opacity="0.6"/>
<circle cx="178.2" cy="153" r="1.8" fill="#E4E4E4" fill-opacity="0.6"/>
<circle cx="1.8" cy="165.6" r="1.8" fill="#E4E4E4" fill-opacity="0.6"/>
<circle cx="14.4" cy="165.6" r="1.8" fill="#E4E4E4" fill-opacity="0.6"/>
<circle cx="27" cy="165.6" r="1.8" fill="#E4E4E4" fill-opacity="0.6"/>
<circle cx="39.6" cy="165.6" r="1.8" fill="#E4E4E4" fill-opacity="0.6"/>
<circle cx="52.2" cy="165.6" r="1.8" fill="#E4E4E4" fill-opacity="0.6"/>
<circle cx="64.8" cy="165.6" r="1.8" fill="#E4E4E4" fill-opacity="0.6"/>
<circle cx="77.4" cy="165.6" r="1.8" fill="#E4E4E4" fill-opacity="0.6"/>
<circle cx="90" cy="165.6" r="1.8" fill="#E4E4E4" fill-opacity="0.6"/>
<circle cx="102.6" cy="165.6" r="1.8" fill="#E4E4E4" fill-opacity="0.6"/>
<circle cx="115.2" cy="165.6" r="1.8" fill="#E4E4E4" fill-opacity="0.6"/>
<circle cx="127.8" cy="165.6" r="1.8" fill="#E4E4E4" fill-opacity="0.6"/>
<circle cx="140.4" cy="165.6" r="1.8" fill="#E4E4E4" fill-opacity="0.6"/>
<circle cx="153" cy="165.6" r="1.8" fill="#E4E4E4" fill-opacity="0.6"/>
<circle cx="165.6" cy="165.6" r="1.8" fill="#E4E4E4" fill-opacity="0.6"/>
<circle cx="178.2" cy="165.6" r="1.8" fill="#E4E4E4" fill-opacity="0.6"/>
<circle cx="1.8" cy="178.2" r="1.8" fill="#E4E4E4" fill-opacity="0.6"/>
<circle cx="14.4" cy="178.2" r="1.8" fill="#E4E4E4" fill-opacity="0.6"/>
<circle cx="27" cy="178.2" r="1.8" fill="#E4E4E4" fill-opacity="0.6"/>
<circle cx="39.6" cy="178.2" r="1.8" fill="#E4E4E4" fill-opacity="0.6"/>
<circle cx="52.2" cy="178.2" r="1.8" fill="#E4E4E4" fill-opacity="0.6"/>
<circle cx="64.8" cy="178.2" r="1.8" fill="#E4E4E4" fill-opacity="0.6"/>
<circle cx="77.4" cy="178.2" r="1.8" fill="#E4E4E4" fill-opacity="0.6"/>
<circle cx="90" cy="178.2" r="1.8" fill="#E4E4E4" fill-opacity="0.6"/>
<circle cx="102.6" cy="178.2" r="1.8" fill="#E4E4E4" fill-opacity="0.6"/>
<circle cx="115.2" cy="178.2" r="1.8" fill="#E4E4E4" fill-opacity="0.6"/>
<circle cx="127.8" cy="178.2" r="1.8" fill="#E4E4E4" fill-opacity="0.6"/>
<circle cx="140.4" cy="178.2" r="1.8" fill="#E4E4E4" fill-opacity="0.6"/>
<circle cx="153" cy="178.2" r="1.8" fill="#E4E4E4" fill-opacity="0.6"/>
<circle cx="165.6" cy="178.2" r="1.8" fill="#E4E4E4" fill-opacity="0.6"/>
<circle cx="178.2" cy="178.2" r="1.8" fill="#E4E4E4" fill-opacity="0.6"/>
<circle cx="191.8" cy="1.8" r="1.8" fill="#E4E4E4" fill-opacity="0.6"/>
<circle cx="204.4" cy="1.8" r="1.8" fill="#E4E4E4" fill-opacity="0.6"/>
<circle cx="217" cy="1.8" r="1.8" fill="#E4E4E4" fill-opacity="0.6"/>
<circle cx="229.6" cy="1.8" r="1.8" fill="#E4E4E4" fill-opacity="0.6"/>
<circle cx="242.2" cy="1.8" r="1.8" fill="#E4E4E4" fill-opacity="0.6"/>
<circle cx="254.8" cy="1.8" r="1.8" fill="#E4E4E4" fill-opacity="0.6"/>
<circle cx="267.4" cy="1.8" r="1.8" fill="#E4E4E4" fill-opacity="0.6"/>
<circle cx="280" cy="1.8" r="1.8" fill="#E4E4E4" fill-opacity="0.6"/>
<circle cx="292.6" cy="1.8" r="1.8" fill="#E4E4E4" fill-opacity="0.6"/>
<circle cx="305.2" cy="1.8" r="1.8" fill="#E4E4E4" fill-opacity="0.6"/>
<circle cx="317.8" cy="1.8" r="1.8" fill="#E4E4E4" fill-opacity="0.6"/>
<circle cx="330.4" cy="1.8" r="1.8" fill="#E4E4E4" fill-opacity="0.6"/>
<circle cx="343" cy="1.8" r="1.8" fill="#E4E4E4" fill-opacity="0.6"/>
<circle cx="355.6" cy="1.8" r="1.8" fill="#E4E4E4" fill-opacity="0.6"/>
<circle cx="368.2" cy="1.8" r="1.8" fill="#E4E4E4" fill-opacity="0.6"/>
<circle cx="191.8" cy="14.4001" r="1.8" fill="#E4E4E4" fill-opacity="0.6"/>
<circle cx="204.4" cy="14.4001" r="1.8" fill="#E4E4E4" fill-opacity="0.6"/>
<circle cx="217" cy="14.4001" r="1.8" fill="#E4E4E4" fill-opacity="0.6"/>
<circle cx="229.6" cy="14.4001" r="1.8" fill="#E4E4E4" fill-opacity="0.6"/>
<circle cx="242.2" cy="14.4001" r="1.8" fill="#E4E4E4" fill-opacity="0.6"/>
<circle cx="254.8" cy="14.4001" r="1.8" fill="#E4E4E4" fill-opacity="0.6"/>
<circle cx="267.4" cy="14.4001" r="1.8" fill="#E4E4E4" fill-opacity="0.6"/>
<circle cx="280" cy="14.4001" r="1.8" fill="#E4E4E4" fill-opacity="0.6"/>
<circle cx="292.6" cy="14.4001" r="1.8" fill="#E4E4E4" fill-opacity="0.6"/>
<circle cx="305.2" cy="14.4001" r="1.8" fill="#E4E4E4" fill-opacity="0.6"/>
<circle cx="317.8" cy="14.4001" r="1.8" fill="#E4E4E4" fill-opacity="0.6"/>
<circle cx="330.4" cy="14.4001" r="1.8" fill="#E4E4E4" fill-opacity="0.6"/>
<circle cx="343" cy="14.4001" r="1.8" fill="#E4E4E4" fill-opacity="0.6"/>
<circle cx="355.6" cy="14.4001" r="1.8" fill="#E4E4E4" fill-opacity="0.6"/>
<circle cx="368.2" cy="14.4001" r="1.8" fill="#E4E4E4" fill-opacity="0.6"/>
<circle cx="191.8" cy="27" r="1.8" fill="#E4E4E4" fill-opacity="0.6"/>
<circle cx="204.4" cy="27" r="1.8" fill="#E4E4E4" fill-opacity="0.6"/>
<circle cx="217" cy="27" r="1.8" fill="#E4E4E4" fill-opacity="0.6"/>
<circle cx="229.6" cy="27" r="1.8" fill="#E4E4E4" fill-opacity="0.6"/>
<circle cx="242.2" cy="27" r="1.8" fill="#E4E4E4" fill-opacity="0.6"/>
<circle cx="254.8" cy="27" r="1.8" fill="#E4E4E4" fill-opacity="0.6"/>
<circle cx="267.4" cy="27" r="1.8" fill="#E4E4E4" fill-opacity="0.6"/>
<circle cx="280" cy="27" r="1.8" fill="#E4E4E4" fill-opacity="0.6"/>
<circle cx="292.6" cy="27" r="1.8" fill="#E4E4E4" fill-opacity="0.6"/>
<circle cx="305.2" cy="27" r="1.8" fill="#E4E4E4" fill-opacity="0.6"/>
<circle cx="317.8" cy="27" r="1.8" fill="#E4E4E4" fill-opacity="0.6"/>
<circle cx="330.4" cy="27" r="1.8" fill="#E4E4E4" fill-opacity="0.6"/>
<circle cx="343" cy="27" r="1.8" fill="#E4E4E4" fill-opacity="0.6"/>
<circle cx="355.6" cy="27" r="1.8" fill="#E4E4E4" fill-opacity="0.6"/>
<circle cx="368.2" cy="27" r="1.8" fill="#E4E4E4" fill-opacity="0.6"/>
<circle cx="191.8" cy="39.6" r="1.8" fill="#E4E4E4" fill-opacity="0.6"/>
<circle cx="204.4" cy="39.6" r="1.8" fill="#E4E4E4" fill-opacity="0.6"/>
<circle cx="217" cy="39.6" r="1.8" fill="#E4E4E4" fill-opacity="0.6"/>
<circle cx="229.6" cy="39.6" r="1.8" fill="#E4E4E4" fill-opacity="0.6"/>
<circle cx="242.2" cy="39.6" r="1.8" fill="#E4E4E4" fill-opacity="0.6"/>
<circle cx="254.8" cy="39.6" r="1.8" fill="#E4E4E4" fill-opacity="0.6"/>
<circle cx="267.4" cy="39.6" r="1.8" fill="#E4E4E4" fill-opacity="0.6"/>
<circle cx="280" cy="39.6" r="1.8" fill="#E4E4E4" fill-opacity="0.6"/>
<circle cx="292.6" cy="39.6" r="1.8" fill="#E4E4E4" fill-opacity="0.6"/>
<circle cx="305.2" cy="39.6" r="1.8" fill="#E4E4E4" fill-opacity="0.6"/>
<circle cx="317.8" cy="39.6" r="1.8" fill="#E4E4E4" fill-opacity="0.6"/>
<circle cx="330.4" cy="39.6" r="1.8" fill="#E4E4E4" fill-opacity="0.6"/>
<circle cx="343" cy="39.6" r="1.8" fill="#E4E4E4" fill-opacity="0.6"/>
<circle cx="355.6" cy="39.6" r="1.8" fill="#E4E4E4" fill-opacity="0.6"/>
<circle cx="368.2" cy="39.6" r="1.8" fill="#E4E4E4" fill-opacity="0.6"/>
<circle cx="191.8" cy="52.1999" r="1.8" fill="#E4E4E4" fill-opacity="0.6"/>
<circle cx="204.4" cy="52.1999" r="1.8" fill="#E4E4E4" fill-opacity="0.6"/>
<circle cx="217" cy="52.1999" r="1.8" fill="#E4E4E4" fill-opacity="0.6"/>
<circle cx="229.6" cy="52.1999" r="1.8" fill="#E4E4E4" fill-opacity="0.6"/>
<circle cx="242.2" cy="52.1999" r="1.8" fill="#E4E4E4" fill-opacity="0.6"/>
<circle cx="254.8" cy="52.1999" r="1.8" fill="#E4E4E4" fill-opacity="0.6"/>
<circle cx="267.4" cy="52.1999" r="1.8" fill="#E4E4E4" fill-opacity="0.6"/>
<circle cx="280" cy="52.1999" r="1.8" fill="#E4E4E4" fill-opacity="0.6"/>
<circle cx="292.6" cy="52.1999" r="1.8" fill="#E4E4E4" fill-opacity="0.6"/>
<circle cx="305.2" cy="52.1999" r="1.8" fill="#E4E4E4" fill-opacity="0.6"/>
<circle cx="317.8" cy="52.1999" r="1.8" fill="#E4E4E4" fill-opacity="0.6"/>
<circle cx="330.4" cy="52.1999" r="1.8" fill="#E4E4E4" fill-opacity="0.6"/>
<circle cx="343" cy="52.1999" r="1.8" fill="#E4E4E4" fill-opacity="0.6"/>
<circle cx="355.6" cy="52.1999" r="1.8" fill="#E4E4E4" fill-opacity="0.6"/>
<circle cx="368.2" cy="52.1999" r="1.8" fill="#E4E4E4" fill-opacity="0.6"/>
<circle cx="191.8" cy="64.8" r="1.8" fill="#E4E4E4" fill-opacity="0.6"/>
<circle cx="204.4" cy="64.8" r="1.8" fill="#E4E4E4" fill-opacity="0.6"/>
<circle cx="217" cy="64.8" r="1.8" fill="#E4E4E4" fill-opacity="0.6"/>
<circle cx="229.6" cy="64.8" r="1.8" fill="#E4E4E4" fill-opacity="0.6"/>
<circle cx="242.2" cy="64.8" r="1.8" fill="#E4E4E4" fill-opacity="0.6"/>
<circle cx="254.8" cy="64.8" r="1.8" fill="#E4E4E4" fill-opacity="0.6"/>
<circle cx="267.4" cy="64.8" r="1.8" fill="#E4E4E4" fill-opacity="0.6"/>
<circle cx="280" cy="64.8" r="1.8" fill="#E4E4E4" fill-opacity="0.6"/>
<circle cx="292.6" cy="64.8" r="1.8" fill="#E4E4E4" fill-opacity="0.6"/>
<circle cx="305.2" cy="64.8" r="1.8" fill="#E4E4E4" fill-opacity="0.6"/>
<circle cx="317.8" cy="64.8" r="1.8" fill="#E4E4E4" fill-opacity="0.6"/>
<circle cx="330.4" cy="64.8" r="1.8" fill="#E4E4E4" fill-opacity="0.6"/>
<circle cx="343" cy="64.8" r="1.8" fill="#E4E4E4" fill-opacity="0.6"/>
<circle cx="355.6" cy="64.8" r="1.8" fill="#E4E4E4" fill-opacity="0.6"/>
<circle cx="368.2" cy="64.8" r="1.8" fill="#E4E4E4" fill-opacity="0.6"/>
<circle cx="191.8" cy="77.4001" r="1.8" fill="#E4E4E4" fill-opacity="0.6"/>
<circle cx="204.4" cy="77.4001" r="1.8" fill="#E4E4E4" fill-opacity="0.6"/>
<circle cx="217" cy="77.4001" r="1.8" fill="#E4E4E4" fill-opacity="0.6"/>
<circle cx="229.6" cy="77.4001" r="1.8" fill="#E4E4E4" fill-opacity="0.6"/>
<circle cx="242.2" cy="77.4001" r="1.8" fill="#E4E4E4" fill-opacity="0.6"/>
<circle cx="254.8" cy="77.4001" r="1.8" fill="#E4E4E4" fill-opacity="0.6"/>
<circle cx="267.4" cy="77.4001" r="1.8" fill="#E4E4E4" fill-opacity="0.6"/>
<circle cx="280" cy="77.4001" r="1.8" fill="#E4E4E4" fill-opacity="0.6"/>
<circle cx="292.6" cy="77.4001" r="1.8" fill="#E4E4E4" fill-opacity="0.6"/>
<circle cx="305.2" cy="77.4001" r="1.8" fill="#E4E4E4" fill-opacity="0.6"/>
<circle cx="317.8" cy="77.4001" r="1.8" fill="#E4E4E4" fill-opacity="0.6"/>
<circle cx="330.4" cy="77.4001" r="1.8" fill="#E4E4E4" fill-opacity="0.6"/>
<circle cx="343" cy="77.4001" r="1.8" fill="#E4E4E4" fill-opacity="0.6"/>
<circle cx="355.6" cy="77.4001" r="1.8" fill="#E4E4E4" fill-opacity="0.6"/>
<circle cx="368.2" cy="77.4001" r="1.8" fill="#E4E4E4" fill-opacity="0.6"/>
<circle cx="191.8" cy="90" r="1.8" fill="#E4E4E4" fill-opacity="0.6"/>
<circle cx="204.4" cy="90" r="1.8" fill="#E4E4E4" fill-opacity="0.6"/>
<circle cx="217" cy="90" r="1.8" fill="#E4E4E4" fill-opacity="0.6"/>
<circle cx="229.6" cy="90" r="1.8" fill="#E4E4E4" fill-opacity="0.6"/>
<circle cx="242.2" cy="90" r="1.8" fill="#E4E4E4" fill-opacity="0.6"/>
<circle cx="254.8" cy="90" r="1.8" fill="#E4E4E4" fill-opacity="0.6"/>
<circle cx="267.4" cy="90" r="1.8" fill="#E4E4E4" fill-opacity="0.6"/>
<circle cx="280" cy="90" r="1.8" fill="#E4E4E4" fill-opacity="0.6"/>
<circle cx="292.6" cy="90" r="1.8" fill="#E4E4E4" fill-opacity="0.6"/>
<circle cx="305.2" cy="90" r="1.8" fill="#E4E4E4" fill-opacity="0.6"/>
<circle cx="317.8" cy="90" r="1.8" fill="#E4E4E4" fill-opacity="0.6"/>
<circle cx="330.4" cy="90" r="1.8" fill="#E4E4E4" fill-opacity="0.6"/>
<circle cx="343" cy="90" r="1.8" fill="#E4E4E4" fill-opacity="0.6"/>
<circle cx="355.6" cy="90" r="1.8" fill="#E4E4E4" fill-opacity="0.6"/>
<circle cx="368.2" cy="90" r="1.8" fill="#E4E4E4" fill-opacity="0.6"/>
<circle cx="191.8" cy="102.6" r="1.8" fill="#E4E4E4" fill-opacity="0.6"/>
<circle cx="204.4" cy="102.6" r="1.8" fill="#E4E4E4" fill-opacity="0.6"/>
<circle cx="217" cy="102.6" r="1.8" fill="#E4E4E4" fill-opacity="0.6"/>
<circle cx="229.6" cy="102.6" r="1.8" fill="#E4E4E4" fill-opacity="0.6"/>
<circle cx="242.2" cy="102.6" r="1.8" fill="#E4E4E4" fill-opacity="0.6"/>
<circle cx="254.8" cy="102.6" r="1.8" fill="#E4E4E4" fill-opacity="0.6"/>
<circle cx="267.4" cy="102.6" r="1.8" fill="#E4E4E4" fill-opacity="0.6"/>
<circle cx="280" cy="102.6" r="1.8" fill="#E4E4E4" fill-opacity="0.6"/>
<circle cx="292.6" cy="102.6" r="1.8" fill="#E4E4E4" fill-opacity="0.6"/>
<circle cx="305.2" cy="102.6" r="1.8" fill="#E4E4E4" fill-opacity="0.6"/>
<circle cx="317.8" cy="102.6" r="1.8" fill="#E4E4E4" fill-opacity="0.6"/>
<circle cx="330.4" cy="102.6" r="1.8" fill="#E4E4E4" fill-opacity="0.6"/>
<circle cx="343" cy="102.6" r="1.8" fill="#E4E4E4" fill-opacity="0.6"/>
<circle cx="355.6" cy="102.6" r="1.8" fill="#E4E4E4" fill-opacity="0.6"/>
<circle cx="368.2" cy="102.6" r="1.8" fill="#E4E4E4" fill-opacity="0.6"/>
<circle cx="191.8" cy="115.2" r="1.8" fill="#E4E4E4" fill-opacity="0.6"/>
<circle cx="204.4" cy="115.2" r="1.8" fill="#E4E4E4" fill-opacity="0.6"/>
<circle cx="217" cy="115.2" r="1.8" fill="#E4E4E4" fill-opacity="0.6"/>
<circle cx="229.6" cy="115.2" r="1.8" fill="#E4E4E4" fill-opacity="0.6"/>
<circle cx="242.2" cy="115.2" r="1.8" fill="#E4E4E4" fill-opacity="0.6"/>
<circle cx="254.8" cy="115.2" r="1.8" fill="#E4E4E4" fill-opacity="0.6"/>
<circle cx="267.4" cy="115.2" r="1.8" fill="#E4E4E4" fill-opacity="0.6"/>
<circle cx="280" cy="115.2" r="1.8" fill="#E4E4E4" fill-opacity="0.6"/>
<circle cx="292.6" cy="115.2" r="1.8" fill="#E4E4E4" fill-opacity="0.6"/>
<circle cx="305.2" cy="115.2" r="1.8" fill="#E4E4E4" fill-opacity="0.6"/>
<circle cx="317.8" cy="115.2" r="1.8" fill="#E4E4E4" fill-opacity="0.6"/>
<circle cx="330.4" cy="115.2" r="1.8" fill="#E4E4E4" fill-opacity="0.6"/>
<circle cx="343" cy="115.2" r="1.8" fill="#E4E4E4" fill-opacity="0.6"/>
<circle cx="355.6" cy="115.2" r="1.8" fill="#E4E4E4" fill-opacity="0.6"/>
<circle cx="368.2" cy="115.2" r="1.8" fill="#E4E4E4" fill-opacity="0.6"/>
<circle cx="191.8" cy="127.8" r="1.8" fill="#E4E4E4" fill-opacity="0.6"/>
<circle cx="204.4" cy="127.8" r="1.8" fill="#E4E4E4" fill-opacity="0.6"/>
<circle cx="217" cy="127.8" r="1.8" fill="#E4E4E4" fill-opacity="0.6"/>
<circle cx="229.6" cy="127.8" r="1.8" fill="#E4E4E4" fill-opacity="0.6"/>
<circle cx="242.2" cy="127.8" r="1.8" fill="#E4E4E4" fill-opacity="0.6"/>
<circle cx="254.8" cy="127.8" r="1.8" fill="#E4E4E4" fill-opacity="0.6"/>
<circle cx="267.4" cy="127.8" r="1.8" fill="#E4E4E4" fill-opacity="0.6"/>
<circle cx="280" cy="127.8" r="1.8" fill="#E4E4E4" fill-opacity="0.6"/>
<circle cx="292.6" cy="127.8" r="1.8" fill="#E4E4E4" fill-opacity="0.6"/>
<circle cx="305.2" cy="127.8" r="1.8" fill="#E4E4E4" fill-opacity="0.6"/>
<circle cx="317.8" cy="127.8" r="1.8" fill="#E4E4E4" fill-opacity="0.6"/>
<circle cx="330.4" cy="127.8" r="1.8" fill="#E4E4E4" fill-opacity="0.6"/>
<circle cx="343" cy="127.8" r="1.8" fill="#E4E4E4" fill-opacity="0.6"/>
<circle cx="355.6" cy="127.8" r="1.8" fill="#E4E4E4" fill-opacity="0.6"/>
<circle cx="368.2" cy="127.8" r="1.8" fill="#E4E4E4" fill-opacity="0.6"/>
<circle cx="191.8" cy="140.4" r="1.8" fill="#E4E4E4" fill-opacity="0.6"/>
<circle cx="204.4" cy="140.4" r="1.8" fill="#E4E4E4" fill-opacity="0.6"/>
<circle cx="217" cy="140.4" r="1.8" fill="#E4E4E4" fill-opacity="0.6"/>
<circle cx="229.6" cy="140.4" r="1.8" fill="#E4E4E4" fill-opacity="0.6"/>
<circle cx="242.2" cy="140.4" r="1.8" fill="#E4E4E4" fill-opacity="0.6"/>
<circle cx="254.8" cy="140.4" r="1.8" fill="#E4E4E4" fill-opacity="0.6"/>
<circle cx="267.4" cy="140.4" r="1.8" fill="#E4E4E4" fill-opacity="0.6"/>
<circle cx="280" cy="140.4" r="1.8" fill="#E4E4E4" fill-opacity="0.6"/>
<circle cx="292.6" cy="140.4" r="1.8" fill="#E4E4E4" fill-opacity="0.6"/>
<circle cx="305.2" cy="140.4" r="1.8" fill="#E4E4E4" fill-opacity="0.6"/>
<circle cx="317.8" cy="140.4" r="1.8" fill="#E4E4E4" fill-opacity="0.6"/>
<circle cx="330.4" cy="140.4" r="1.8" fill="#E4E4E4" fill-opacity="0.6"/>
<circle cx="343" cy="140.4" r="1.8" fill="#E4E4E4" fill-opacity="0.6"/>
<circle cx="355.6" cy="140.4" r="1.8" fill="#E4E4E4" fill-opacity="0.6"/>
<circle cx="368.2" cy="140.4" r="1.8" fill="#E4E4E4" fill-opacity="0.6"/>
<circle cx="191.8" cy="153" r="1.8" fill="#E4E4E4" fill-opacity="0.6"/>
<circle cx="204.4" cy="153" r="1.8" fill="#E4E4E4" fill-opacity="0.6"/>
<circle cx="217" cy="153" r="1.8" fill="#E4E4E4" fill-opacity="0.6"/>
<circle cx="229.6" cy="153" r="1.8" fill="#E4E4E4" fill-opacity="0.6"/>
<circle cx="242.2" cy="153" r="1.8" fill="#E4E4E4" fill-opacity="0.6"/>
<circle cx="254.8" cy="153" r="1.8" fill="#E4E4E4" fill-opacity="0.6"/>
<circle cx="267.4" cy="153" r="1.8" fill="#E4E4E4" fill-opacity="0.6"/>
<circle cx="280" cy="153" r="1.8" fill="#E4E4E4" fill-opacity="0.6"/>
<circle cx="292.6" cy="153" r="1.8" fill="#E4E4E4" fill-opacity="0.6"/>
<circle cx="305.2" cy="153" r="1.8" fill="#E4E4E4" fill-opacity="0.6"/>
<circle cx="317.8" cy="153" r="1.8" fill="#E4E4E4" fill-opacity="0.6"/>
<circle cx="330.4" cy="153" r="1.8" fill="#E4E4E4" fill-opacity="0.6"/>
<circle cx="343" cy="153" r="1.8" fill="#E4E4E4" fill-opacity="0.6"/>
<circle cx="355.6" cy="153" r="1.8" fill="#E4E4E4" fill-opacity="0.6"/>
<circle cx="368.2" cy="153" r="1.8" fill="#E4E4E4" fill-opacity="0.6"/>
<circle cx="191.8" cy="165.6" r="1.8" fill="#E4E4E4" fill-opacity="0.6"/>
<circle cx="204.4" cy="165.6" r="1.8" fill="#E4E4E4" fill-opacity="0.6"/>
<circle cx="217" cy="165.6" r="1.8" fill="#E4E4E4" fill-opacity="0.6"/>
<circle cx="229.6" cy="165.6" r="1.8" fill="#E4E4E4" fill-opacity="0.6"/>
<circle cx="242.2" cy="165.6" r="1.8" fill="#E4E4E4" fill-opacity="0.6"/>
<circle cx="254.8" cy="165.6" r="1.8" fill="#E4E4E4" fill-opacity="0.6"/>
<circle cx="267.4" cy="165.6" r="1.8" fill="#E4E4E4" fill-opacity="0.6"/>
<circle cx="280" cy="165.6" r="1.8" fill="#E4E4E4" fill-opacity="0.6"/>
<circle cx="292.6" cy="165.6" r="1.8" fill="#E4E4E4" fill-opacity="0.6"/>
<circle cx="305.2" cy="165.6" r="1.8" fill="#E4E4E4" fill-opacity="0.6"/>
<circle cx="317.8" cy="165.6" r="1.8" fill="#E4E4E4" fill-opacity="0.6"/>
<circle cx="330.4" cy="165.6" r="1.8" fill="#E4E4E4" fill-opacity="0.6"/>
<circle cx="343" cy="165.6" r="1.8" fill="#E4E4E4" fill-opacity="0.6"/>
<circle cx="355.6" cy="165.6" r="1.8" fill="#E4E4E4" fill-opacity="0.6"/>
<circle cx="368.2" cy="165.6" r="1.8" fill="#E4E4E4" fill-opacity="0.6"/>
<circle cx="191.8" cy="178.2" r="1.8" fill="#E4E4E4" fill-opacity="0.6"/>
<circle cx="204.4" cy="178.2" r="1.8" fill="#E4E4E4" fill-opacity="0.6"/>
<circle cx="217" cy="178.2" r="1.8" fill="#E4E4E4" fill-opacity="0.6"/>
<circle cx="229.6" cy="178.2" r="1.8" fill="#E4E4E4" fill-opacity="0.6"/>
<circle cx="242.2" cy="178.2" r="1.8" fill="#E4E4E4" fill-opacity="0.6"/>
<circle cx="254.8" cy="178.2" r="1.8" fill="#E4E4E4" fill-opacity="0.6"/>
<circle cx="267.4" cy="178.2" r="1.8" fill="#E4E4E4" fill-opacity="0.6"/>
<circle cx="280" cy="178.2" r="1.8" fill="#E4E4E4" fill-opacity="0.6"/>
<circle cx="292.6" cy="178.2" r="1.8" fill="#E4E4E4" fill-opacity="0.6"/>
<circle cx="305.2" cy="178.2" r="1.8" fill="#E4E4E4" fill-opacity="0.6"/>
<circle cx="317.8" cy="178.2" r="1.8" fill="#E4E4E4" fill-opacity="0.6"/>
<circle cx="330.4" cy="178.2" r="1.8" fill="#E4E4E4" fill-opacity="0.6"/>
<circle cx="343" cy="178.2" r="1.8" fill="#E4E4E4" fill-opacity="0.6"/>
<circle cx="355.6" cy="178.2" r="1.8" fill="#E4E4E4" fill-opacity="0.6"/>
<circle cx="368.2" cy="178.2" r="1.8" fill="#E4E4E4" fill-opacity="0.6"/>
</svg>
